<svg width="31" height="62" viewBox="0 0 31 62" fill="none" xmlns="http://www.w3.org/2000/svg">
<g style="mix-blend-mode:difference">
<path d="M23.0364 28.8604C19.5093 27.795 16.9191 27.2622 15.2658 27.2622C13.6492 27.2622 12.5286 27.9787 11.904 29.4116C11.3161 30.8444 11.0222 33.1224 11.0222 36.2453C11.0222 39.3316 11.2978 41.5911 11.8489 43.024C12.4367 44.4201 13.6124 45.1182 15.376 45.1182C15.8904 45.1182 16.8824 44.9713 18.352 44.6773V40.4889H15.872V33.9858H26.3982V52.8889H19.8951L19.0133 51.1253H18.7929C18.1683 51.6397 17.6723 52.0255 17.3049 52.2827C16.2761 53.0542 14.8249 53.44 12.9511 53.44C5.2723 53.44 1.43289 47.635 1.43289 36.0249C1.43289 30.2198 2.44326 25.7926 4.464 22.7431C6.48474 19.6569 9.88326 18.1138 14.6596 18.1138C18.4806 18.1138 21.7689 18.7016 24.5244 19.8773L23.0364 28.8604Z" fill="white"/>
</g>
<g style="mix-blend-mode:exclusion">
<g style="mix-blend-mode:difference">
<path d="M1.13371 28.248C1.13371 24.0438 2.3619 20.6663 4.81829 18.1154C7.27467 15.5646 10.6286 14.2891 14.88 14.2891C19.1787 14.2891 23.5718 14.7143 28.0594 15.5646L26.6423 26.9017C21.9657 25.8152 18.7535 25.272 17.0057 25.272C14.7855 25.272 13.6754 26.1695 13.6754 27.9646C13.6754 28.6731 14.195 29.3581 15.2343 30.0194C16.3208 30.6808 17.6198 31.3893 19.1314 32.1451C20.643 32.8537 22.1547 33.7276 23.6663 34.7669C25.1779 35.7589 26.4533 37.1996 27.4926 39.0891C28.579 40.9787 29.1223 43.1516 29.1223 45.608C29.1223 50.0956 27.9177 53.5676 25.5086 56.024C23.0994 58.4804 19.6747 59.7086 15.2343 59.7086C10.8411 59.7086 6.54248 59.0236 2.33829 57.6537L3.11771 47.096C8.17219 48.5604 11.6914 49.2926 13.6754 49.2926C15.6594 49.2926 16.6514 48.4187 16.6514 46.6709C16.6514 45.7733 16.1082 44.9467 15.0217 44.1909C13.9825 43.435 12.707 42.6792 11.1954 41.9234C9.68381 41.1676 8.14857 40.2937 6.58971 39.3017C5.0781 38.3097 3.77905 36.869 2.69257 34.9794C1.65333 33.0899 1.13371 30.8461 1.13371 28.248Z" fill="white"/>
</g>
</g>
</svg>
